<svg xmlns="http://www.w3.org/2000/svg" width="20" height="20" viewBox="0 0 20 20" fill="none"><path d="M12.924 3.23096H6.46198C4.67755 3.23096 3.23099 4.67752 3.23099 6.46195V12.9239C3.23099 14.7084 4.67755 16.1549 6.46198 16.1549H12.924C14.7084 16.1549 16.155 14.7084 16.155 12.9239V6.46195C16.155 4.67752 14.7084 3.23096 12.924 3.23096Z" stroke="white" stroke-linecap="round" stroke-linejoin="round"></path><path d="M9.69299 12.1163C11.0313 12.1163 12.1162 11.0313 12.1162 9.69302C12.1162 8.3547 11.0313 7.26978 9.69299 7.26978C8.35467 7.26978 7.26974 8.3547 7.26974 9.69302C7.26974 11.0313 8.35467 12.1163 9.69299 12.1163Z" stroke="white" stroke-linecap="round" stroke-linejoin="round"></path><path d="M13.3279 6.05811V6.05911" stroke="white" stroke-linecap="round" stroke-linejoin="round"></path></svg>