<svg xmlns="http://www.w3.org/2000/svg" width="16" height="16" viewBox="0 0 16 16" fill="none"><path d="M11.5 1H4.5C2.567 1 1 2.567 1 4.5V11.5C1 13.433 2.567 15 4.5 15H11.5C13.433 15 15 13.433 15 11.5V4.5C15 2.567 13.433 1 11.5 1Z" stroke="black" stroke-linecap="round" stroke-linejoin="round"></path><path d="M8 10.6248C9.44975 10.6248 10.625 9.4495 10.625 7.99976C10.625 6.55001 9.44975 5.37476 8 5.37476C6.55025 5.37476 5.375 6.55001 5.375 7.99976C5.375 9.4495 6.55025 10.6248 8 10.6248Z" stroke="black" stroke-linecap="round" stroke-linejoin="round"></path><path d="M11.9375 4.0625V4.0635" stroke="black" stroke-linecap="round" stroke-linejoin="round"></path></svg>